<svg xmlns="http://www.w3.org/2000/svg" id="canvas" viewBox="250.526 194.137 705.660 258.392"><path d="M 281.78,246.83 C 281.37 248.83, 281.80 251.26, 282.12 256.68 C 282.44 262.11, 282.85 265.71, 283.35 273.96 C 283.86 282.21, 284.15 287.86, 284.63 297.96 C 285.12 308.05, 285.42 313.98, 285.80 324.42 C 286.17 334.86, 286.39 340.46, 286.50 350.17 C 286.62 359.89, 286.56 364.83, 286.37 372.99 C 286.18 381.14, 285.99 385.25, 285.55 390.94 C 285.10 396.64, 284.79 398.60, 284.15 401.48 C 283.52 404.35, 282.53 404.41, 282.37 405.32 C 282.22 406.23, 282.45 406.64, 283.38 406.03 C 284.30 405.41, 286.05 405.22, 286.99 402.24 C 287.93 399.25, 287.79 396.94, 288.06 391.10 C 288.33 385.26, 288.32 381.20, 288.36 373.01 C 288.40 364.82, 288.43 359.88, 288.27 350.15 C 288.11 340.42, 287.90 334.82, 287.57 324.36 C 287.25 313.91, 287.01 307.97, 286.63 297.87 C 286.26 287.77, 286.08 282.11, 285.71 273.84 C 285.35 265.57, 285.15 261.95, 284.83 256.53 C 284.51 251.10, 284.74 248.65, 284.13 246.71 C 283.52 244.77, 282.18 244.84, 281.78 246.83" style="stroke: black; fill: black;"/><path d="M 255.80,234.23 C 257.28 232.89, 258.01 229.99, 261.09 226.23 C 264.17 222.47, 266.20 219.60, 271.20 215.42 C 276.20 211.23, 279.62 208.38, 286.11 205.30 C 292.60 202.23, 296.50 200.98, 303.66 200.03 C 310.82 199.08, 315.02 199.29, 321.93 200.57 C 328.83 201.85, 332.37 203.08, 338.18 206.43 C 343.99 209.79, 346.89 212.27, 350.96 217.36 C 355.04 222.45, 356.63 225.48, 358.56 231.89 C 360.49 238.29, 360.90 242.31, 360.61 249.38 C 360.32 256.45, 359.36 260.50, 357.09 267.24 C 354.83 273.98, 353.15 277.35, 349.30 283.07 C 345.44 288.78, 342.73 291.47, 337.83 295.81 C 332.92 300.14, 329.68 301.88, 324.76 304.75 C 319.85 307.62, 316.97 308.52, 313.25 310.14 C 309.54 311.77, 308.16 312.01, 306.17 312.89 C 304.18 313.78, 303.82 314.00, 303.30 314.58 C 302.78 315.15, 302.79 315.49, 303.57 315.77 C 304.34 316.06, 304.94 316.48, 307.17 316.01 C 309.41 315.54, 310.91 315.19, 314.73 313.43 C 318.55 311.67, 321.30 310.35, 326.26 307.20 C 331.21 304.05, 334.50 302.23, 339.50 297.66 C 344.50 293.10, 347.29 290.31, 351.25 284.38 C 355.21 278.44, 356.97 274.96, 359.31 267.98 C 361.64 261.00, 362.65 256.83, 362.94 249.47 C 363.24 242.12, 362.83 237.92, 360.80 231.21 C 358.77 224.49, 357.09 221.25, 352.79 215.90 C 348.50 210.54, 345.43 207.93, 339.34 204.42 C 333.25 200.91, 329.54 199.67, 322.34 198.33 C 315.15 196.98, 310.83 196.78, 303.36 197.71 C 295.90 198.64, 291.83 199.88, 285.03 202.97 C 278.23 206.07, 274.64 208.93, 269.37 213.19 C 264.09 217.44, 261.80 220.32, 258.66 224.27 C 255.52 228.21, 254.24 230.92, 253.67 232.91 C 253.10 234.90, 254.31 235.56, 255.80 234.23" style="stroke: black; fill: black;"/><path d="M 396.17,332.97 C 395.08 332.37, 393.69 331.71, 391.03 332.25 C 388.37 332.79, 386.41 333.46, 382.86 335.69 C 379.31 337.93, 377.01 339.58, 373.29 343.42 C 369.56 347.26, 367.36 349.73, 364.24 354.92 C 361.12 360.10, 359.52 363.60, 357.69 369.35 C 355.86 375.10, 355.08 378.32, 355.10 383.66 C 355.11 388.99, 355.54 391.99, 357.75 396.02 C 359.97 400.05, 362.04 401.93, 366.16 403.80 C 370.29 405.68, 373.30 405.98, 378.39 405.39 C 383.48 404.80, 386.50 403.71, 391.62 400.83 C 396.75 397.95, 399.55 395.69, 404.03 391.00 C 408.50 386.31, 410.76 383.28, 413.98 377.38 C 417.20 371.49, 418.53 367.69, 420.12 361.52 C 421.72 355.35, 422.14 352.04, 421.96 346.53 C 421.78 341.01, 420.97 338.04, 419.22 333.96 C 417.47 329.88, 415.71 328.24, 413.20 326.12 C 410.69 324.00, 409.03 323.84, 406.66 323.38 C 404.29 322.92, 402.95 323.23, 401.34 323.83 C 399.74 324.43, 399.13 325.40, 398.63 326.40 C 398.12 327.40, 398.43 328.31, 398.81 328.84 C 399.20 329.38, 400.07 329.20, 400.54 329.08 C 401.02 328.95, 400.80 328.47, 401.19 328.21 C 401.57 327.96, 401.55 327.91, 402.47 327.80 C 403.38 327.69, 404.18 327.31, 405.77 327.67 C 407.35 328.03, 408.34 328.05, 410.39 329.61 C 412.44 331.16, 414.30 332.03, 416.01 335.44 C 417.72 338.85, 418.67 341.58, 418.96 346.66 C 419.25 351.74, 418.93 354.96, 417.46 360.85 C 415.99 366.73, 414.70 370.45, 411.61 376.09 C 408.52 381.72, 406.29 384.63, 401.99 389.04 C 397.70 393.45, 394.93 395.52, 390.13 398.13 C 385.33 400.74, 382.53 401.58, 378.01 402.10 C 373.50 402.61, 371.03 402.24, 367.55 400.71 C 364.07 399.18, 362.49 397.85, 360.63 394.44 C 358.77 391.03, 358.24 388.48, 358.23 383.65 C 358.23 378.82, 358.86 375.69, 360.62 370.29 C 362.37 364.88, 363.93 361.45, 367.00 356.62 C 370.07 351.80, 372.30 349.51, 375.95 346.15 C 379.61 342.78, 381.96 341.59, 385.27 339.80 C 388.58 338.02, 390.25 338.11, 392.49 337.21 C 394.73 336.31, 395.74 336.14, 396.47 335.29 C 397.21 334.44, 397.26 333.58, 396.17 332.97" style="stroke: black; fill: black;"/><path d="M 453.33,356.75 C 452.77 358.17, 452.95 360.31, 453.11 363.49 C 453.27 366.66, 453.86 368.76, 454.12 372.61 C 454.38 376.47, 454.02 379.47, 454.40 382.76 C 454.78 386.04, 455.12 387.54, 456.02 389.04 C 456.93 390.54, 457.74 390.97, 458.93 390.27 C 460.12 389.57, 460.95 388.60, 461.97 385.53 C 462.99 382.47, 462.85 379.71, 464.03 374.95 C 465.21 370.18, 465.97 366.94, 467.85 361.72 C 469.74 356.51, 470.84 353.59, 473.47 348.89 C 476.09 344.19, 477.75 341.83, 480.97 338.22 C 484.20 334.61, 486.12 333.30, 489.58 330.84 C 493.03 328.38, 494.73 327.50, 498.24 325.92 C 501.74 324.35, 503.68 324.07, 507.10 322.98 C 510.51 321.89, 512.63 321.49, 515.32 320.48 C 518.00 319.47, 519.58 318.86, 520.53 317.93 C 521.48 317.00, 521.37 316.27, 520.06 315.85 C 518.75 315.43, 516.88 315.27, 513.99 315.84 C 511.11 316.42, 509.10 317.41, 505.61 318.73 C 502.13 320.05, 500.19 320.59, 496.56 322.45 C 492.94 324.30, 491.11 325.29, 487.50 328.02 C 483.90 330.74, 481.90 332.21, 478.53 336.06 C 475.16 339.92, 473.46 342.42, 470.66 347.30 C 467.85 352.17, 466.71 355.14, 464.51 360.42 C 462.30 365.69, 461.22 368.91, 459.64 373.67 C 458.06 378.43, 457.08 381.05, 456.58 384.23 C 456.09 387.41, 456.59 388.67, 457.16 389.58 C 457.72 390.49, 458.72 390.22, 459.40 388.78 C 460.08 387.34, 460.56 385.74, 460.55 382.40 C 460.55 379.07, 459.87 376.02, 459.38 372.11 C 458.89 368.19, 458.80 365.96, 458.10 362.81 C 457.41 359.67, 456.87 357.57, 455.92 356.36 C 454.96 355.15, 453.89 355.32, 453.33 356.75" style="stroke: black; fill: black;"/><path d="M 554.16,240.53 C 553.81 242.49, 554.37 244.70, 554.70 250.18 C 555.02 255.66, 555.24 259.62, 555.80 267.90 C 556.36 276.18, 556.84 281.59, 557.50 291.58 C 558.17 301.58, 558.34 307.58, 559.13 317.86 C 559.91 328.14, 560.51 333.92, 561.43 342.98 C 562.36 352.04, 562.93 356.72, 563.74 363.14 C 564.55 369.57, 564.79 371.67, 565.48 375.12 C 566.17 378.56, 566.60 379.36, 567.19 380.35 C 567.78 381.35, 568.27 381.25, 568.44 380.11 C 568.62 378.97, 568.55 378.13, 568.07 374.68 C 567.59 371.22, 566.99 369.21, 566.04 362.83 C 565.10 356.45, 564.37 351.80, 563.35 342.78 C 562.33 333.75, 561.72 327.98, 560.95 317.72 C 560.19 307.46, 560.07 301.45, 559.52 291.46 C 558.96 281.47, 558.59 276.05, 558.17 267.76 C 557.75 259.47, 557.75 255.50, 557.41 250.02 C 557.08 244.53, 557.12 242.25, 556.47 240.35 C 555.82 238.45, 554.52 238.56, 554.16 240.53" style="stroke: black; fill: black;"/><path d="M 532.58,335.44 C 533.84 336.06, 535.27 336.05, 538.84 336.22 C 542.42 336.39, 544.87 336.18, 550.45 336.28 C 556.04 336.38, 560.07 336.53, 566.76 336.72 C 573.44 336.91, 577.12 337.29, 583.87 337.23 C 590.62 337.17, 594.23 337.11, 600.51 336.43 C 606.78 335.75, 609.73 335.19, 615.25 333.84 C 620.78 332.49, 623.45 331.84, 628.14 329.70 C 632.83 327.55, 635.20 326.32, 638.70 323.09 C 642.20 319.86, 643.53 317.92, 645.63 313.53 C 647.73 309.14, 648.45 306.53, 649.21 301.15 C 649.96 295.77, 650.00 292.60, 649.39 286.62 C 648.78 280.64, 647.90 277.21, 646.16 271.25 C 644.43 265.28, 643.29 261.83, 640.70 256.78 C 638.10 251.73, 636.40 249.31, 633.20 246.01 C 630.00 242.70, 628.02 241.18, 624.69 240.26 C 621.37 239.33, 619.20 239.41, 616.56 241.38 C 613.91 243.34, 612.94 245.45, 611.49 250.09 C 610.04 254.73, 609.71 257.57, 609.31 264.56 C 608.91 271.56, 609.03 275.76, 609.49 285.04 C 609.96 294.33, 610.54 300.07, 611.65 310.97 C 612.75 321.86, 613.45 327.90, 615.03 339.52 C 616.61 351.13, 617.52 357.52, 619.54 369.04 C 621.56 380.56, 622.98 386.76, 625.14 397.12 C 627.30 407.48, 628.50 412.59, 630.35 420.83 C 632.19 429.06, 633.14 432.96, 634.37 438.29 C 635.59 443.62, 635.61 445.45, 636.46 447.49 C 637.32 449.54, 638.30 449.84, 638.64 448.52 C 638.97 447.19, 638.89 444.60, 638.13 440.88 C 637.37 437.16, 636.31 434.03, 634.84 429.91 C 633.38 425.79, 632.20 422.01, 630.79 420.27 C 629.38 418.52, 627.99 418.93, 627.78 421.17 C 627.56 423.42, 628.64 427.24, 629.73 431.47 C 630.82 435.71, 631.80 438.82, 633.24 442.36 C 634.67 445.90, 635.74 448.24, 636.91 449.16 C 638.08 450.08, 639.12 449.26, 639.10 446.96 C 639.08 444.67, 638.21 443.00, 636.82 437.69 C 635.44 432.38, 634.20 428.58, 632.18 420.40 C 630.15 412.22, 628.93 407.11, 626.70 396.79 C 624.47 386.46, 623.05 380.27, 621.03 368.78 C 619.00 357.28, 618.10 350.91, 616.57 339.31 C 615.04 327.72, 614.37 321.67, 613.38 310.80 C 612.38 299.93, 611.87 294.17, 611.60 284.96 C 611.33 275.76, 611.39 271.53, 612.03 264.77 C 612.67 258.01, 613.41 255.22, 614.81 251.17 C 616.20 247.12, 617.24 245.95, 618.99 244.52 C 620.74 243.10, 621.21 243.24, 623.55 244.03 C 625.89 244.83, 627.82 245.64, 630.70 248.48 C 633.58 251.31, 635.42 253.50, 637.95 258.22 C 640.47 262.94, 641.63 266.34, 643.32 272.08 C 645.00 277.82, 645.83 281.19, 646.37 286.92 C 646.92 292.64, 646.80 295.66, 646.06 300.70 C 645.32 305.74, 644.58 308.11, 642.66 312.11 C 640.75 316.11, 639.65 317.74, 636.48 320.71 C 633.32 323.67, 631.23 324.84, 626.84 326.92 C 622.46 329.00, 619.90 329.74, 614.57 331.11 C 609.24 332.48, 606.36 333.11, 600.22 333.79 C 594.07 334.47, 590.53 334.54, 583.86 334.51 C 577.19 334.49, 573.54 334.04, 566.88 333.67 C 560.23 333.31, 556.18 332.99, 550.58 332.69 C 544.99 332.38, 542.50 332.05, 538.89 332.14 C 535.28 332.23, 533.80 332.47, 532.54 333.13 C 531.27 333.79, 531.31 334.82, 532.58 335.44" style="stroke: black; fill: black;"/><path d="M 596.65,367.08 C 598.24 367.17, 600.01 366.38, 603.77 365.26 C 607.53 364.15, 610.03 363.06, 615.45 361.50 C 620.86 359.94, 624.52 359.13, 630.84 357.48 C 637.16 355.84, 640.68 354.91, 647.03 353.27 C 653.37 351.63, 656.78 350.75, 662.56 349.28 C 668.34 347.80, 671.14 347.15, 675.92 345.89 C 680.69 344.63, 682.98 344.18, 686.43 342.98 C 689.87 341.78, 691.56 341.36, 693.15 339.89 C 694.75 338.42, 695.07 337.12, 694.40 335.63 C 693.73 334.14, 692.45 332.80, 689.78 332.44 C 687.12 332.07, 684.83 332.42, 681.08 333.82 C 677.34 335.22, 674.83 336.42, 671.07 339.44 C 667.31 342.47, 665.14 344.75, 662.30 348.96 C 659.47 353.17, 658.23 355.85, 656.90 360.51 C 655.56 365.18, 655.19 367.84, 655.63 372.29 C 656.06 376.74, 656.75 379.31, 659.07 382.75 C 661.38 386.19, 663.33 387.79, 667.19 389.50 C 671.05 391.22, 673.76 391.61, 678.38 391.33 C 683.00 391.05, 685.65 390.12, 690.29 388.10 C 694.94 386.08, 697.46 384.66, 701.59 381.23 C 705.73 377.79, 707.88 375.40, 710.95 370.91 C 714.03 366.42, 715.48 363.65, 716.99 358.78 C 718.51 353.92, 718.69 351.15, 718.52 346.59 C 718.36 342.02, 717.75 339.59, 716.17 335.95 C 714.59 332.30, 713.20 330.58, 710.60 328.38 C 708.00 326.17, 705.87 325.29, 703.16 324.91 C 700.45 324.52, 698.43 325.28, 697.05 326.44 C 695.67 327.61, 695.24 329.41, 696.24 330.74 C 697.24 332.07, 698.63 332.97, 702.06 333.10 C 705.48 333.22, 708.01 332.77, 713.38 331.37 C 718.74 329.96, 722.31 328.80, 728.89 326.07 C 735.46 323.33, 739.16 321.65, 746.26 317.69 C 753.36 313.74, 757.34 311.56, 764.40 306.30 C 771.45 301.03, 775.19 297.74, 781.54 291.37 C 787.88 285.01, 791.12 281.36, 796.13 274.49 C 801.14 267.61, 803.61 263.47, 806.56 256.99 C 809.52 250.52, 810.59 247.29, 810.90 242.10 C 811.21 236.90, 810.49 234.08, 808.12 231.02 C 805.74 227.97, 803.30 226.87, 799.04 226.82 C 794.78 226.77, 791.82 227.75, 786.79 230.76 C 781.76 233.77, 778.58 236.17, 773.90 241.89 C 769.22 247.61, 766.98 251.52, 763.40 259.36 C 759.82 267.21, 758.21 271.90, 756.00 281.09 C 753.78 290.29, 752.95 295.56, 752.32 305.34 C 751.69 315.12, 751.75 320.62, 752.83 329.99 C 753.91 339.36, 755.11 344.24, 757.72 352.19 C 760.32 360.14, 762.35 363.84, 765.86 369.72 C 769.36 375.59, 771.09 378.16, 775.26 381.56 C 779.43 384.96, 781.89 386.05, 786.71 386.70 C 791.53 387.36, 794.48 386.59, 799.36 384.83 C 804.25 383.06, 806.71 381.29, 811.15 377.89 C 815.59 374.48, 817.81 372.04, 821.58 367.80 C 825.36 363.57, 827.20 360.39, 830.02 356.72 C 832.83 353.05, 834.17 351.23, 835.67 349.45 C 837.18 347.67, 837.03 347.29, 837.54 347.83 C 838.06 348.37, 837.71 349.47, 838.27 352.16 C 838.83 354.86, 839.33 357.51, 840.35 361.30 C 841.37 365.09, 841.76 367.76, 843.36 371.12 C 844.96 374.48, 846.89 376.96, 848.35 378.11 C 849.81 379.27, 850.74 378.65, 850.67 376.89 C 850.61 375.14, 849.02 372.73, 848.03 369.33 C 847.05 365.93, 846.68 363.70, 845.75 359.91 C 844.81 356.12, 844.74 353.24, 843.34 350.37 C 841.93 347.50, 840.80 346.34, 838.71 345.55 C 836.61 344.76, 835.21 344.63, 832.86 346.42 C 830.52 348.20, 829.74 350.62, 826.98 354.47 C 824.23 358.31, 822.65 361.46, 819.10 365.64 C 815.54 369.82, 813.37 372.12, 809.20 375.37 C 805.04 378.62, 802.70 380.19, 798.27 381.88 C 793.85 383.57, 791.35 384.27, 787.07 383.80 C 782.79 383.34, 780.73 382.59, 776.87 379.54 C 773.01 376.50, 771.23 374.15, 767.77 368.56 C 764.31 362.96, 762.21 359.32, 759.59 351.57 C 756.96 343.81, 755.74 339.00, 754.65 329.77 C 753.56 320.55, 753.49 315.10, 754.13 305.46 C 754.77 295.81, 755.61 290.58, 757.86 281.55 C 760.10 272.51, 761.75 267.88, 765.36 260.28 C 768.96 252.68, 771.28 248.93, 775.88 243.55 C 780.48 238.18, 783.71 236.08, 788.35 233.40 C 792.98 230.71, 795.60 230.22, 799.06 230.13 C 802.52 230.03, 803.82 230.57, 805.64 232.94 C 807.47 235.30, 808.42 237.32, 808.19 241.95 C 807.95 246.57, 807.21 249.79, 804.47 256.06 C 801.73 262.33, 799.34 266.50, 794.47 273.29 C 789.61 280.08, 786.40 283.71, 780.14 289.98 C 773.89 296.26, 770.18 299.51, 763.18 304.65 C 756.19 309.79, 752.23 311.92, 745.16 315.67 C 738.09 319.43, 734.37 321.03, 727.85 323.41 C 721.33 325.79, 717.72 326.69, 712.55 327.57 C 707.38 328.45, 705.02 327.61, 701.99 327.81 C 698.97 328.02, 698.20 328.22, 697.44 328.57 C 696.68 328.92, 697.26 329.25, 698.20 329.57 C 699.13 329.88, 700.24 329.61, 702.11 330.14 C 703.98 330.67, 705.48 330.70, 707.55 332.21 C 709.61 333.72, 710.97 334.77, 712.43 337.68 C 713.90 340.60, 714.61 342.75, 714.88 346.77 C 715.14 350.79, 715.08 353.34, 713.75 357.79 C 712.42 362.24, 711.09 364.87, 708.23 369.04 C 705.37 373.20, 703.32 375.47, 699.45 378.62 C 695.58 381.77, 693.14 383.02, 688.89 384.80 C 684.63 386.59, 682.18 387.31, 678.16 387.53 C 674.14 387.75, 671.94 387.31, 668.77 385.92 C 665.60 384.53, 664.17 383.38, 662.29 380.58 C 660.41 377.78, 659.74 375.73, 659.37 371.92 C 658.99 368.11, 659.21 365.69, 660.43 361.53 C 661.64 357.37, 662.78 354.85, 665.44 351.13 C 668.10 347.42, 670.22 345.38, 673.71 342.96 C 677.20 340.54, 679.66 340.07, 682.90 339.03 C 686.14 338.00, 687.90 338.25, 689.90 337.79 C 691.90 337.32, 692.65 336.91, 692.92 336.71 C 693.19 336.52, 692.84 336.33, 691.26 336.81 C 689.69 337.28, 688.28 337.89, 685.03 339.09 C 681.78 340.29, 679.65 341.31, 675.01 342.80 C 670.37 344.29, 667.57 344.98, 661.84 346.54 C 656.11 348.10, 652.69 348.99, 646.34 350.59 C 640.00 352.19, 636.47 353.03, 630.11 354.55 C 623.75 356.06, 620.04 356.74, 614.54 358.16 C 609.03 359.57, 606.32 360.28, 602.57 361.61 C 598.83 362.94, 597.01 363.71, 595.83 364.81 C 594.64 365.90, 595.06 366.99, 596.65 367.08" style="stroke: black; fill: black;"/><path d="M 906.19,307.34 C 905.41 307.08, 904.97 306.81, 903.49 307.50 C 902.01 308.19, 900.61 308.73, 898.80 310.81 C 896.99 312.88, 896.02 314.53, 894.45 317.86 C 892.88 321.19, 891.93 323.23, 890.96 327.46 C 889.99 331.68, 889.58 334.20, 889.61 338.99 C 889.63 343.77, 889.80 346.58, 891.07 351.39 C 892.34 356.20, 893.43 358.86, 895.96 363.04 C 898.49 367.22, 900.13 369.36, 903.73 372.28 C 907.32 375.20, 909.55 376.40, 913.94 377.65 C 918.34 378.89, 921.12 379.07, 925.70 378.50 C 930.29 377.94, 932.83 377.11, 936.86 374.83 C 940.89 372.55, 942.91 370.82, 945.87 367.11 C 948.83 363.40, 950.24 360.98, 951.68 356.29 C 953.12 351.59, 953.39 348.55, 953.06 343.62 C 952.72 338.70, 952.05 336.04, 950.00 331.65 C 947.96 327.25, 946.25 324.88, 942.84 321.63 C 939.44 318.39, 936.98 316.87, 932.96 315.42 C 928.95 313.96, 926.77 314.17, 922.77 314.35 C 918.77 314.53, 916.13 315.21, 912.97 316.31 C 909.81 317.41, 908.61 318.47, 906.97 319.86 C 905.32 321.24, 905.15 322.18, 904.72 323.24 C 904.30 324.30, 904.62 324.71, 904.84 325.16 C 905.06 325.61, 905.44 325.52, 905.82 325.47 C 906.20 325.43, 905.96 325.27, 906.72 324.95 C 907.47 324.64, 907.99 324.64, 909.60 323.90 C 911.21 323.16, 912.07 322.29, 914.77 321.25 C 917.47 320.21, 919.74 319.11, 923.12 318.69 C 926.50 318.26, 928.25 317.98, 931.68 319.11 C 935.12 320.24, 937.28 321.53, 940.29 324.34 C 943.31 327.15, 944.92 329.26, 946.76 333.16 C 948.60 337.07, 949.21 339.45, 949.51 343.86 C 949.80 348.28, 949.54 351.04, 948.24 355.23 C 946.95 359.42, 945.68 361.56, 943.03 364.83 C 940.39 368.10, 938.59 369.60, 935.03 371.59 C 931.48 373.58, 929.26 374.30, 925.24 374.80 C 921.22 375.30, 918.78 375.18, 914.93 374.11 C 911.08 373.05, 909.18 372.07, 906.00 369.48 C 902.83 366.89, 901.33 364.98, 899.05 361.18 C 896.78 357.38, 895.74 354.90, 894.64 350.47 C 893.54 346.05, 893.42 343.40, 893.56 339.04 C 893.70 334.68, 894.15 332.32, 895.34 328.66 C 896.54 325.00, 897.72 323.37, 899.52 320.72 C 901.33 318.07, 902.87 317.33, 904.37 315.42 C 905.86 313.50, 906.40 312.46, 907.01 311.14 C 907.61 309.82, 907.54 309.58, 907.38 308.82 C 907.22 308.06, 906.97 307.61, 906.19 307.34" style="stroke: black; fill: black;"/></svg>