<svg xmlns="http://www.w3.org/2000/svg" id="canvas" viewBox="369.533 181.743 714.916 372.258"><path d="M 409.01,185.63 C 408.27 186.91, 408.06 188.44, 407.61 192.22 C 407.16 196.01, 407.36 198.58, 406.76 204.56 C 406.16 210.53, 405.69 214.41, 404.60 222.11 C 403.51 229.81, 402.77 234.23, 401.30 243.05 C 399.83 251.87, 399.04 256.66, 397.25 266.23 C 395.46 275.79, 394.38 280.77, 392.36 290.88 C 390.33 300.98, 389.29 306.42, 387.12 316.74 C 384.96 327.05, 383.61 332.49, 381.51 342.45 C 379.42 352.41, 378.28 357.51, 376.65 366.52 C 375.01 375.54, 374.14 379.99, 373.34 387.52 C 372.55 395.06, 372.37 398.40, 372.67 404.20 C 372.98 409.99, 373.40 412.28, 374.85 416.50 C 376.30 420.71, 377.02 422.70, 379.91 425.28 C 382.80 427.86, 384.90 428.75, 389.29 429.39 C 393.67 430.04, 396.31 429.46, 401.82 428.52 C 407.33 427.59, 410.23 426.62, 416.84 424.73 C 423.44 422.85, 427.41 421.57, 434.86 419.09 C 442.32 416.62, 446.53 414.91, 454.10 412.38 C 461.67 409.85, 465.57 408.50, 472.70 406.44 C 479.83 404.38, 483.39 403.53, 489.74 402.06 C 496.09 400.60, 499.38 400.06, 504.44 399.09 C 509.51 398.12, 513.01 398.02, 515.06 397.21 C 517.12 396.40, 516.94 395.17, 514.72 395.03 C 512.50 394.89, 509.07 395.59, 503.96 396.51 C 498.85 397.44, 495.54 398.10, 489.16 399.65 C 482.78 401.20, 479.22 402.15, 472.06 404.27 C 464.91 406.38, 460.98 407.73, 453.39 410.24 C 445.80 412.74, 441.57 414.44, 434.12 416.81 C 426.66 419.18, 422.67 420.39, 416.12 422.10 C 409.56 423.81, 406.59 424.61, 401.33 425.36 C 396.06 426.12, 393.62 426.40, 389.80 425.86 C 385.98 425.32, 384.64 424.73, 382.22 422.65 C 379.80 420.57, 379.12 419.19, 377.70 415.47 C 376.29 411.75, 375.61 409.58, 375.15 404.03 C 374.68 398.48, 374.73 395.16, 375.39 387.72 C 376.05 380.28, 376.87 375.82, 378.42 366.84 C 379.97 357.85, 381.09 352.74, 383.15 342.79 C 385.22 332.84, 386.56 327.39, 388.73 317.08 C 390.91 306.76, 391.95 301.31, 394.02 291.21 C 396.08 281.11, 397.17 276.13, 399.04 266.57 C 400.90 257.01, 401.72 252.22, 403.34 243.41 C 404.95 234.59, 405.79 230.19, 407.11 222.50 C 408.43 214.81, 409.08 210.93, 409.94 204.94 C 410.80 198.96, 411.12 196.40, 411.40 192.58 C 411.67 188.76, 411.78 187.25, 411.30 185.86 C 410.82 184.47, 409.75 184.36, 409.01 185.63" style="stroke: black; fill: black;"/><path d="M 585.44,320.64 C 584.96 319.25, 583.83 317.32, 581.40 315.78 C 578.97 314.25, 577.17 313.77, 573.31 312.97 C 569.45 312.17, 567.09 311.59, 562.11 311.79 C 557.13 311.99, 554.07 312.31, 548.40 313.98 C 542.72 315.64, 539.74 316.96, 533.72 320.12 C 527.70 323.27, 524.01 325.21, 518.27 329.74 C 512.54 334.27, 509.48 337.12, 505.04 342.75 C 500.60 348.38, 498.73 351.82, 496.08 357.89 C 493.43 363.96, 492.53 367.23, 491.78 373.09 C 491.02 378.95, 490.87 382.09, 492.29 387.21 C 493.71 392.33, 495.16 395.06, 498.87 398.70 C 502.58 402.33, 505.34 403.80, 510.85 405.40 C 516.37 406.99, 519.83 407.11, 526.45 406.68 C 533.08 406.26, 537.09 405.57, 543.96 403.27 C 550.83 400.96, 554.63 399.21, 560.81 395.14 C 567.00 391.07, 570.15 388.21, 574.90 382.90 C 579.64 377.60, 581.67 374.44, 584.53 368.62 C 587.38 362.79, 588.31 359.58, 589.19 353.79 C 590.07 348.00, 589.94 344.88, 588.92 339.67 C 587.90 334.46, 586.68 331.84, 584.10 327.73 C 581.52 323.61, 579.47 321.83, 576.01 319.09 C 572.56 316.35, 570.49 315.32, 566.81 314.02 C 563.14 312.72, 559.61 312.36, 557.66 312.59 C 555.71 312.82, 555.53 314.15, 557.08 315.17 C 558.63 316.18, 562.09 316.30, 565.43 317.67 C 568.76 319.04, 570.58 319.64, 573.76 322.01 C 576.94 324.39, 578.86 325.88, 581.31 329.53 C 583.75 333.19, 584.95 335.50, 585.99 340.28 C 587.03 345.05, 587.25 347.95, 586.51 353.40 C 585.76 358.85, 584.94 361.94, 582.26 367.52 C 579.58 373.10, 577.66 376.18, 573.10 381.31 C 568.55 386.43, 565.48 389.22, 559.50 393.13 C 553.51 397.05, 549.81 398.71, 543.17 400.88 C 536.53 403.05, 532.59 403.63, 526.29 403.98 C 519.99 404.33, 516.73 404.11, 511.66 402.62 C 506.59 401.14, 504.27 399.81, 500.95 396.57 C 497.63 393.33, 496.37 391.06, 495.07 386.43 C 493.77 381.80, 493.78 378.93, 494.44 373.42 C 495.11 367.92, 495.88 364.72, 498.38 358.89 C 500.89 353.06, 502.68 349.70, 506.97 344.27 C 511.25 338.83, 514.22 336.06, 519.82 331.71 C 525.42 327.37, 529.08 325.48, 534.96 322.54 C 540.84 319.61, 543.79 318.40, 549.23 317.02 C 554.67 315.65, 557.55 315.55, 562.15 315.67 C 566.74 315.78, 568.83 316.64, 572.18 317.60 C 575.53 318.55, 576.56 319.44, 578.89 320.46 C 581.22 321.48, 582.51 322.66, 583.82 322.69 C 585.13 322.73, 585.92 322.02, 585.44 320.64" style="stroke: black; fill: black;"/><path d="M 637.77,331.54 C 637.50 330.50, 636.74 329.78, 635.22 328.59 C 633.70 327.40, 632.76 326.43, 630.19 325.59 C 627.61 324.75, 625.63 324.35, 622.33 324.37 C 619.03 324.40, 617.21 324.55, 613.69 325.71 C 610.17 326.87, 608.07 327.67, 604.74 330.17 C 601.40 332.68, 599.74 334.52, 596.99 338.24 C 594.25 341.96, 592.89 344.20, 591.01 348.77 C 589.12 353.34, 588.17 356.17, 587.55 361.08 C 586.94 365.99, 586.84 368.97, 587.91 373.34 C 588.99 377.70, 590.14 379.83, 592.95 382.89 C 595.75 385.96, 597.81 387.31, 601.93 388.67 C 606.05 390.03, 608.65 390.17, 613.57 389.70 C 618.49 389.22, 621.41 388.35, 626.55 386.30 C 631.69 384.26, 634.58 382.99, 639.25 379.47 C 643.92 375.95, 646.30 373.50, 649.91 368.72 C 653.51 363.95, 654.93 360.85, 657.28 355.59 C 659.63 350.33, 660.45 346.92, 661.65 342.43 C 662.85 337.94, 663.40 335.40, 663.27 333.12 C 663.15 330.84, 661.88 330.44, 661.04 331.05 C 660.20 331.65, 659.24 332.99, 659.09 336.13 C 658.93 339.27, 659.55 342.02, 660.28 346.76 C 661.01 351.51, 661.58 354.59, 662.74 359.85 C 663.91 365.10, 664.73 368.28, 666.12 373.02 C 667.51 377.77, 668.10 380.20, 669.69 383.58 C 671.28 386.97, 672.83 388.89, 674.07 389.97 C 675.31 391.04, 676.10 390.53, 675.90 388.97 C 675.71 387.41, 674.32 385.56, 673.08 382.17 C 671.84 378.77, 671.00 376.62, 669.70 372.00 C 668.40 367.38, 667.52 364.23, 666.57 359.07 C 665.62 353.90, 665.41 350.83, 664.96 346.17 C 664.50 341.51, 664.84 338.84, 664.28 335.79 C 663.73 332.75, 663.13 331.62, 662.20 330.96 C 661.26 330.30, 660.47 330.40, 659.62 332.51 C 658.77 334.62, 658.98 337.12, 657.94 341.49 C 656.89 345.86, 656.49 349.27, 654.41 354.36 C 652.33 359.45, 650.94 362.41, 647.54 366.94 C 644.14 371.47, 641.85 373.75, 637.41 377.00 C 632.98 380.25, 630.18 381.38, 625.35 383.20 C 620.51 385.02, 617.69 385.73, 613.24 386.11 C 608.80 386.48, 606.61 386.25, 603.11 385.09 C 599.61 383.94, 598.07 382.85, 595.76 380.32 C 593.45 377.79, 592.47 376.20, 591.57 372.44 C 590.66 368.69, 590.65 365.99, 591.23 361.55 C 591.81 357.11, 592.67 354.40, 594.46 350.23 C 596.26 346.05, 597.62 343.96, 600.20 340.67 C 602.77 337.39, 604.35 335.81, 607.33 333.81 C 610.30 331.82, 612.12 331.34, 615.08 330.70 C 618.03 330.07, 619.44 330.39, 622.09 330.64 C 624.73 330.90, 626.15 331.43, 628.31 331.98 C 630.46 332.53, 631.21 333.03, 632.87 333.39 C 634.52 333.75, 635.59 334.16, 636.57 333.79 C 637.55 333.42, 638.04 332.58, 637.77 331.54" style="stroke: black; fill: black;"/><path d="M 741.84,346.35 C 741.55 345.28, 740.88 344.36, 739.19 343.11 C 737.49 341.85, 736.24 340.84, 733.36 340.06 C 730.49 339.29, 728.51 338.87, 724.82 339.24 C 721.12 339.61, 718.77 340.29, 714.89 341.92 C 711.01 343.56, 708.97 344.68, 705.40 347.42 C 701.84 350.16, 700.11 351.99, 697.08 355.63 C 694.04 359.26, 692.33 361.35, 690.24 365.59 C 688.15 369.84, 687.28 372.49, 686.64 376.86 C 685.99 381.22, 686.11 383.64, 687.00 387.40 C 687.88 391.16, 688.64 393.12, 691.06 395.67 C 693.48 398.22, 695.37 399.49, 699.08 400.16 C 702.79 400.83, 705.08 400.65, 709.60 399.01 C 714.13 397.36, 716.63 395.91, 721.70 391.93 C 726.76 387.94, 729.73 385.08, 734.92 379.09 C 740.11 373.09, 742.90 369.58, 747.65 361.94 C 752.40 354.30, 754.79 349.80, 758.67 340.91 C 762.55 332.01, 764.31 326.84, 767.04 317.46 C 769.77 308.09, 770.72 303.14, 772.31 294.03 C 773.89 284.91, 774.27 279.97, 774.97 271.88 C 775.67 263.80, 775.89 259.35, 775.79 253.59 C 775.69 247.84, 775.61 245.24, 774.48 243.10 C 773.34 240.97, 771.36 240.76, 770.13 242.92 C 768.89 245.08, 768.72 247.67, 768.30 253.91 C 767.87 260.15, 767.89 264.92, 768.02 274.10 C 768.14 283.28, 768.44 289.40, 768.93 299.82 C 769.43 310.24, 769.63 315.87, 770.50 326.20 C 771.37 336.54, 772.04 341.99, 773.29 351.48 C 774.55 360.97, 775.48 365.75, 776.79 373.64 C 778.09 381.53, 778.43 385.13, 779.83 390.95 C 781.23 396.76, 782.17 399.20, 783.79 402.73 C 785.41 406.25, 786.41 407.15, 787.92 408.58 C 789.43 410.01, 790.51 409.83, 791.34 409.88 C 792.16 409.92, 792.27 409.45, 792.03 408.80 C 791.78 408.16, 791.16 408.17, 790.11 406.67 C 789.07 405.17, 788.39 404.57, 786.81 401.30 C 785.23 398.03, 783.83 395.92, 782.21 390.32 C 780.60 384.72, 780.19 381.11, 778.75 373.30 C 777.32 365.48, 776.35 360.69, 775.04 351.25 C 773.74 341.80, 773.06 336.36, 772.22 326.06 C 771.38 315.76, 771.20 310.14, 770.84 299.74 C 770.49 289.35, 770.36 283.22, 770.46 274.10 C 770.55 264.97, 770.86 260.19, 771.30 254.12 C 771.75 248.05, 772.53 245.82, 772.68 243.76 C 772.83 241.70, 771.99 241.83, 772.07 243.81 C 772.15 245.79, 772.92 248.07, 773.08 253.66 C 773.25 259.24, 773.41 263.72, 772.89 271.73 C 772.38 279.74, 772.01 284.67, 770.49 293.72 C 768.98 302.77, 768.03 307.68, 765.32 316.96 C 762.62 326.25, 760.85 331.39, 756.97 340.16 C 753.09 348.94, 750.69 353.38, 745.92 360.85 C 741.15 368.31, 738.32 371.74, 733.12 377.49 C 727.91 383.24, 724.85 385.96, 719.91 389.58 C 714.97 393.20, 712.43 394.30, 708.43 395.58 C 704.42 396.86, 702.71 396.58, 699.88 395.99 C 697.06 395.40, 696.07 394.55, 694.32 392.63 C 692.57 390.72, 691.89 389.45, 691.14 386.41 C 690.40 383.36, 690.08 381.24, 690.58 377.41 C 691.09 373.59, 691.79 371.14, 693.67 367.28 C 695.56 363.41, 697.17 361.42, 700.01 358.11 C 702.85 354.80, 704.55 353.09, 707.86 350.72 C 711.17 348.35, 713.10 347.43, 716.55 346.25 C 720.00 345.07, 722.08 344.78, 725.10 344.81 C 728.12 344.84, 729.30 345.75, 731.65 346.39 C 733.99 347.03, 735.04 347.59, 736.83 348.01 C 738.63 348.43, 739.61 348.81, 740.61 348.48 C 741.61 348.15, 742.12 347.42, 741.84 346.35" style="stroke: black; fill: black;"/><path d="M 822.52,326.78 C 821.98 328.33, 822.17 330.46, 822.30 334.37 C 822.42 338.28, 822.66 340.95, 823.13 346.31 C 823.60 351.68, 823.62 358.29, 824.65 361.20 C 825.67 364.11, 827.75 363.91, 828.24 360.87 C 828.72 357.83, 827.47 351.35, 827.06 345.99 C 826.66 340.64, 826.64 337.98, 826.23 334.10 C 825.82 330.23, 825.74 328.08, 825.00 326.62 C 824.26 325.15, 823.07 325.23, 822.52 326.78" style="stroke: black; fill: black;"/><path d="M 831.74,262.85 C 831.07 263.50, 830.62 264.50, 830.89 265.04 C 831.17 265.59, 832.14 265.95, 833.10 265.60 C 834.06 265.25, 835.12 264.08, 835.70 263.30 C 836.27 262.51, 836.26 261.97, 835.97 261.67 C 835.67 261.36, 835.07 261.54, 834.22 261.78 C 833.37 262.01, 832.40 262.20, 831.74 262.85" style="stroke: black; fill: black;"/><path d="M 864.91,339.41 C 864.46 340.46, 864.84 341.51, 864.97 343.83 C 865.10 346.15, 865.17 347.64, 865.58 351.02 C 865.99 354.41, 866.58 356.74, 867.01 360.76 C 867.45 364.77, 867.72 367.12, 867.76 371.11 C 867.81 375.10, 867.27 377.51, 867.24 380.69 C 867.21 383.88, 867.11 385.29, 867.61 387.02 C 868.10 388.75, 868.67 389.56, 869.73 389.34 C 870.78 389.12, 871.77 388.44, 872.88 385.94 C 873.99 383.44, 874.01 381.20, 875.28 376.84 C 876.55 372.48, 877.17 369.49, 879.23 364.13 C 881.30 358.76, 882.66 355.34, 885.61 350.02 C 888.56 344.71, 890.30 342.00, 893.97 337.56 C 897.64 333.12, 899.53 331.17, 903.96 327.81 C 908.39 324.45, 911.08 322.82, 916.12 320.76 C 921.16 318.69, 923.96 317.90, 929.17 317.51 C 934.39 317.11, 937.20 317.43, 942.20 318.78 C 947.21 320.13, 949.88 321.15, 954.20 324.24 C 958.51 327.34, 960.58 329.67, 963.78 334.25 C 966.97 338.82, 968.32 341.69, 970.17 347.12 C 972.01 352.55, 972.50 355.45, 973.01 361.38 C 973.52 367.32, 973.13 371.24, 972.70 376.80 C 972.27 382.37, 971.46 385.03, 970.87 389.21 C 970.28 393.38, 969.57 395.89, 969.75 397.67 C 969.93 399.44, 970.91 399.66, 971.77 398.07 C 972.62 396.49, 973.22 393.94, 974.02 389.73 C 974.83 385.52, 975.44 382.74, 975.80 377.02 C 976.17 371.30, 976.45 367.29, 975.86 361.12 C 975.27 354.96, 974.78 351.92, 972.84 346.21 C 970.90 340.50, 969.55 337.46, 966.16 332.59 C 962.77 327.72, 960.55 325.18, 955.92 321.85 C 951.28 318.52, 948.37 317.38, 942.97 315.92 C 937.58 314.46, 934.54 314.12, 928.95 314.55 C 923.35 314.98, 920.36 315.87, 915.02 318.08 C 909.68 320.28, 906.90 322.03, 902.26 325.57 C 897.61 329.10, 895.65 331.15, 891.79 335.74 C 887.93 340.33, 886.14 343.11, 882.97 348.51 C 879.80 353.92, 878.35 357.39, 875.94 362.75 C 873.53 368.12, 872.61 371.02, 870.91 375.34 C 869.21 379.66, 867.85 381.60, 867.42 384.34 C 867.00 387.08, 867.99 388.44, 868.78 389.04 C 869.58 389.63, 870.62 388.95, 871.38 387.32 C 872.15 385.69, 872.39 384.16, 872.60 380.90 C 872.82 377.64, 872.61 375.11, 872.47 371.00 C 872.33 366.89, 872.17 364.45, 871.90 360.34 C 871.64 356.22, 871.48 353.93, 871.15 350.42 C 870.81 346.91, 870.99 345.17, 870.21 342.80 C 869.42 340.44, 868.28 339.28, 867.22 338.60 C 866.16 337.92, 865.36 338.37, 864.91 339.41" style="stroke: black; fill: black;"/><path d="M 1056.35,331.73 C 1055.87 330.71, 1054.87 329.93, 1052.99 329.02 C 1051.12 328.11, 1050.01 327.46, 1046.96 327.17 C 1043.92 326.88, 1041.62 326.92, 1037.76 327.56 C 1033.91 328.20, 1031.74 328.78, 1027.70 330.37 C 1023.66 331.97, 1021.57 332.95, 1017.56 335.56 C 1013.55 338.18, 1011.36 339.94, 1007.64 343.45 C 1003.92 346.95, 1001.78 349.06, 998.94 353.10 C 996.11 357.14, 994.64 359.59, 993.45 363.65 C 992.25 367.71, 992.08 369.88, 992.98 373.40 C 993.88 376.93, 995.09 378.97, 997.93 381.27 C 1000.77 383.58, 1002.95 384.45, 1007.19 384.92 C 1011.43 385.39, 1014.17 384.72, 1019.13 383.62 C 1024.08 382.51, 1026.93 381.73, 1031.95 379.38 C 1036.96 377.02, 1039.57 375.33, 1044.22 371.84 C 1048.86 368.34, 1051.24 365.78, 1055.17 361.92 C 1059.09 358.05, 1060.89 355.93, 1063.83 352.52 C 1066.77 349.11, 1068.48 347.11, 1069.87 344.87 C 1071.26 342.62, 1070.95 341.27, 1070.78 341.29 C 1070.62 341.31, 1069.51 342.13, 1069.05 344.98 C 1068.59 347.83, 1068.66 350.34, 1068.48 355.53 C 1068.29 360.72, 1068.01 364.11, 1068.12 370.93 C 1068.23 377.75, 1068.41 381.72, 1069.03 389.62 C 1069.65 397.52, 1070.18 401.84, 1071.23 410.44 C 1072.28 419.04, 1073.04 423.59, 1074.27 432.59 C 1075.50 441.60, 1076.41 446.47, 1077.39 455.49 C 1078.37 464.50, 1078.88 469.16, 1079.18 477.66 C 1079.47 486.16, 1079.69 490.48, 1078.87 497.97 C 1078.05 505.45, 1077.42 508.85, 1075.08 515.07 C 1072.74 521.30, 1071.15 524.19, 1067.16 529.10 C 1063.18 534.01, 1060.66 536.23, 1055.15 539.63 C 1049.64 543.04, 1046.42 544.35, 1039.63 546.13 C 1032.84 547.91, 1028.82 548.21, 1021.20 548.55 C 1013.57 548.90, 1009.16 548.87, 1001.49 547.86 C 993.82 546.84, 989.62 545.75, 982.83 543.47 C 976.04 541.19, 972.81 539.59, 967.55 536.47 C 962.28 533.35, 959.98 531.68, 956.50 527.88 C 953.02 524.08, 951.62 521.81, 950.14 517.48 C 948.66 513.15, 948.53 510.80, 949.10 506.25 C 949.67 501.70, 950.56 499.27, 952.99 494.72 C 955.41 490.18, 957.52 487.61, 961.22 483.53 C 964.92 479.45, 967.76 477.43, 971.47 474.31 C 975.18 471.19, 978.40 469.61, 979.79 467.94 C 981.17 466.28, 980.46 465.20, 978.39 465.97 C 976.33 466.75, 973.37 468.74, 969.45 471.82 C 965.53 474.89, 962.65 477.06, 958.80 481.35 C 954.95 485.64, 952.77 488.35, 950.20 493.25 C 947.64 498.16, 946.57 500.83, 945.99 505.87 C 945.41 510.92, 945.60 513.70, 947.30 518.47 C 949.00 523.24, 950.69 525.72, 954.49 529.74 C 958.29 533.77, 960.77 535.43, 966.30 538.61 C 971.82 541.80, 975.12 543.37, 982.10 545.67 C 989.08 547.96, 993.36 549.05, 1001.20 550.08 C 1009.03 551.11, 1013.49 551.15, 1021.30 550.81 C 1029.10 550.47, 1033.20 550.22, 1040.22 548.39 C 1047.24 546.56, 1050.65 545.23, 1056.41 541.67 C 1062.16 538.11, 1064.84 535.74, 1068.99 530.58 C 1073.14 525.41, 1074.77 522.33, 1077.16 515.85 C 1079.55 509.37, 1080.13 505.84, 1080.92 498.19 C 1081.72 490.53, 1081.46 486.17, 1081.13 477.59 C 1080.80 469.01, 1080.27 464.33, 1079.28 455.28 C 1078.29 446.23, 1077.38 441.35, 1076.18 432.34 C 1074.98 423.32, 1074.24 418.78, 1073.28 410.20 C 1072.32 401.62, 1071.82 397.31, 1071.38 389.46 C 1070.95 381.61, 1070.89 377.68, 1071.09 370.95 C 1071.29 364.22, 1071.85 360.95, 1072.38 355.80 C 1072.91 350.65, 1073.94 348.32, 1073.74 345.18 C 1073.54 342.05, 1072.84 340.76, 1071.37 340.13 C 1069.90 339.50, 1068.50 340.02, 1066.41 342.02 C 1064.31 344.02, 1063.61 346.61, 1060.91 350.14 C 1058.20 353.66, 1056.59 355.80, 1052.87 359.64 C 1049.16 363.47, 1046.79 365.98, 1042.32 369.31 C 1037.86 372.65, 1035.35 374.21, 1030.55 376.33 C 1025.76 378.46, 1022.94 379.06, 1018.36 379.95 C 1013.78 380.84, 1011.20 381.20, 1007.65 380.79 C 1004.11 380.39, 1002.75 379.60, 1000.63 377.92 C 998.51 376.23, 997.73 374.99, 997.05 372.36 C 996.36 369.73, 996.22 368.18, 997.21 364.75 C 998.20 361.32, 999.40 358.95, 1001.99 355.22 C 1004.57 351.49, 1006.60 349.38, 1010.12 346.10 C 1013.65 342.81, 1015.79 341.11, 1019.60 338.78 C 1023.40 336.46, 1025.41 335.67, 1029.16 334.48 C 1032.92 333.29, 1034.91 333.01, 1038.35 332.84 C 1041.79 332.67, 1043.72 333.41, 1046.38 333.63 C 1049.04 333.86, 1049.84 333.88, 1051.65 333.97 C 1053.46 334.06, 1054.48 334.53, 1055.42 334.08 C 1056.36 333.64, 1056.84 332.74, 1056.35 331.73" style="stroke: black; fill: black;"/></svg>